<svg width="410" height="163" viewBox="0 0 410 163" fill="none" xmlns="http://www.w3.org/2000/svg">
<g clip-path="url(#clip0_310_119)">
<path fill-rule="evenodd" clip-rule="evenodd" d="M-15 125.197C-11.4094 110.085 3.51052 94.0348 14.5441 68.4113C25.5777 42.7877 39.5125 5.98654 64.167 6.6423C64.8012 6.4585 81.0986 4.8491 90.4137 21.428C99.7287 38.0068 102.503 47.1713 102.503 47.1713C86.4054 68.2797 82.4207 81.8875 70.9905 108.775C59.5603 135.663 42.5714 158.346 16.7375 158.462C-9.09634 158.579 -12.4721 143.525 -15 125.197Z" fill="url(#paint0_linear_310_119)"/>
<path fill-rule="evenodd" clip-rule="evenodd" d="M190.93 125.197C203.92 113.39 209.44 94.0348 220.474 68.4113C231.507 42.7877 245.442 5.98654 270.097 6.6423C270.731 6.4585 287.028 4.8491 296.343 21.428C305.658 38.0068 305.591 49.0301 305.591 49.0301C289.493 70.1385 288.35 81.8875 276.92 108.775C265.49 135.663 248.501 158.346 222.667 158.462C196.833 158.579 193.458 143.525 190.93 125.197Z" fill="url(#paint1_linear_310_119)"/>
<path fill-rule="evenodd" clip-rule="evenodd" d="M64.1248 6.59106H142.545C165.493 12.4561 172.05 59.8055 176.93 82.7744C181.81 105.743 198.634 157.288 219.928 158.463L140.062 158.193C114.919 141.63 109.658 102.205 107.102 82.7744C104.546 63.3438 100.192 5.58673 64.1248 6.59106Z" fill="#193F5A"/>
<path fill-rule="evenodd" clip-rule="evenodd" d="M268.375 6.59106H346.795C369.743 12.4561 376.301 59.8055 381.181 82.7744C386.06 105.743 402.884 157.288 424.178 158.463L344.313 158.193C319.17 141.63 313.909 102.205 311.353 82.7744C308.797 63.3438 304.442 5.58675 268.375 6.59106Z" fill="url(#paint2_linear_310_119)"/>
</g>
<defs>
<linearGradient id="paint0_linear_310_119" x1="98" y1="-13.3819" x2="35.65" y2="144.974" gradientUnits="userSpaceOnUse">
<stop stop-color="#CDDAF8"/>
<stop offset="0.57317" stop-color="#CDDAF8" stop-opacity="0.14"/>
<stop offset="1" stop-color="#CDDAF8" stop-opacity="0"/>
</linearGradient>
<linearGradient id="paint1_linear_310_119" x1="224.5" y1="152.598" x2="281.261" y2="2.4576" gradientUnits="userSpaceOnUse">
<stop stop-color="#CDDAF8"/>
<stop offset="1" stop-color="#A4C0FF" stop-opacity="0"/>
</linearGradient>
<linearGradient id="paint2_linear_310_119" x1="313.5" y1="-3.43169" x2="380.19" y2="163.434" gradientUnits="userSpaceOnUse">
<stop stop-color="#193F5A"/>
<stop offset="0.484061" stop-color="#A9B8C3" stop-opacity="0.568668"/>
<stop offset="0.713338" stop-color="#D1D9DF" stop-opacity="0.1"/>
<stop offset="1" stop-color="white" stop-opacity="0"/>
</linearGradient>
<clipPath id="clip0_310_119">
<rect width="410" height="163" fill="white"/>
</clipPath>
</defs>
</svg>
