<svg width="761" height="224" viewBox="0 0 761 224" fill="none" xmlns="http://www.w3.org/2000/svg">
<path fill-rule="evenodd" clip-rule="evenodd" d="M225 103.908C227.387 93.86 237.307 83.1883 244.643 66.1517C251.979 49.1152 261.244 24.6469 277.636 25.0829C278.058 24.9607 288.894 23.8907 295.087 34.9136C301.281 45.9365 303.125 52.0298 303.125 52.0298C292.422 66.0643 289.773 75.1118 282.173 92.9889C274.573 110.866 263.278 125.948 246.102 126.025C228.925 126.102 226.681 116.093 225 103.908Z" fill="url(#paint0_linear_347_7)"/>
<path fill-rule="evenodd" clip-rule="evenodd" d="M361.918 103.908C370.555 96.0572 374.225 83.1883 381.561 66.1517C388.897 49.1152 398.162 24.6469 414.555 25.0829C414.976 24.9607 425.812 23.8907 432.005 34.9136C438.199 45.9365 438.154 53.2657 438.154 53.2657C427.451 67.3002 426.691 75.1118 419.091 92.9889C411.492 110.866 400.196 125.948 383.02 126.025C365.843 126.102 363.599 116.093 361.918 103.908Z" fill="url(#paint1_linear_347_7)"/>
<path fill-rule="evenodd" clip-rule="evenodd" d="M277.608 25.0489H329.748C345.006 28.9484 349.366 60.43 352.61 75.7015C355.855 90.9729 367.04 125.244 381.199 126.025L328.098 125.846C311.381 114.833 307.883 88.6204 306.183 75.7015C304.484 62.7825 301.589 24.3811 277.608 25.0489Z" fill="#193F5A"/>
<path fill-rule="evenodd" clip-rule="evenodd" d="M413.41 25.0489H465.55C480.807 28.9484 485.167 60.43 488.412 75.7015C491.656 90.9729 502.842 125.244 517 126.025L463.899 125.846C447.182 114.833 443.684 88.6204 441.985 75.7015C440.285 62.7825 437.39 24.3811 413.41 25.0489Z" fill="url(#paint2_linear_347_7)"/>
<path d="M43.9801 154.364H50.5852V183.064C50.5852 186.118 49.8679 188.824 48.4332 191.182C46.9986 193.526 44.9815 195.372 42.3821 196.722C39.7827 198.057 36.7358 198.724 33.2415 198.724C29.7614 198.724 26.7216 198.057 24.1222 196.722C21.5227 195.372 19.5057 193.526 18.071 191.182C16.6364 188.824 15.919 186.118 15.919 183.064V154.364H22.5028V182.531C22.5028 184.506 22.9361 186.26 23.8026 187.794C24.6832 189.328 25.9261 190.536 27.5312 191.416C29.1364 192.283 31.0398 192.716 33.2415 192.716C35.4574 192.716 37.3679 192.283 38.973 191.416C40.5923 190.536 41.8281 189.328 42.6804 187.794C43.5469 186.26 43.9801 184.506 43.9801 182.531V154.364ZM66.0167 178.568V198H59.646V165.273H65.761V170.599H66.1658C66.9187 168.866 68.0977 167.474 69.7028 166.423C71.3221 165.372 73.3604 164.847 75.8178 164.847C78.0479 164.847 80.0011 165.315 81.6772 166.253C83.3533 167.176 84.6531 168.554 85.5763 170.386C86.4996 172.219 86.9613 174.484 86.9613 177.183V198H80.5906V177.95C80.5906 175.578 79.9727 173.724 78.7369 172.389C77.5011 171.04 75.8036 170.365 73.6445 170.365C72.1673 170.365 70.8533 170.685 69.7028 171.324C68.5664 171.963 67.6644 172.901 66.9968 174.136C66.3434 175.358 66.0167 176.835 66.0167 178.568ZM101.365 186.899L101.322 179.122H102.43L115.47 165.273H123.098L108.225 181.04H107.224L101.365 186.899ZM95.5053 198V154.364H101.876V198H95.5053ZM116.173 198L104.454 182.446L108.843 177.993L123.993 198H116.173ZM135.275 178.568V198H128.904V165.273H135.019V170.599H135.424C136.176 168.866 137.355 167.474 138.961 166.423C140.58 165.372 142.618 164.847 145.076 164.847C147.306 164.847 149.259 165.315 150.935 166.253C152.611 167.176 153.911 168.554 154.834 170.386C155.757 172.219 156.219 174.484 156.219 177.183V198H149.848V177.95C149.848 175.578 149.23 173.724 147.995 172.389C146.759 171.04 145.061 170.365 142.902 170.365C141.425 170.365 140.111 170.685 138.961 171.324C137.824 171.963 136.922 172.901 136.255 174.136C135.601 175.358 135.275 176.835 135.275 178.568ZM178.549 198.661C175.48 198.661 172.803 197.957 170.516 196.551C168.229 195.145 166.453 193.178 165.189 190.649C163.925 188.121 163.293 185.166 163.293 181.786C163.293 178.391 163.925 175.422 165.189 172.879C166.453 170.337 168.229 168.362 170.516 166.956C172.803 165.55 175.48 164.847 178.549 164.847C181.617 164.847 184.294 165.55 186.581 166.956C188.868 168.362 190.644 170.337 191.908 172.879C193.172 175.422 193.804 178.391 193.804 181.786C193.804 185.166 193.172 188.121 191.908 190.649C190.644 193.178 188.868 195.145 186.581 196.551C184.294 197.957 181.617 198.661 178.549 198.661ZM178.57 193.312C180.559 193.312 182.206 192.787 183.513 191.736C184.82 190.685 185.786 189.286 186.411 187.538C187.05 185.791 187.37 183.866 187.37 181.764C187.37 179.676 187.05 177.759 186.411 176.011C185.786 174.25 184.82 172.837 183.513 171.771C182.206 170.706 180.559 170.173 178.57 170.173C176.567 170.173 174.905 170.706 173.584 171.771C172.277 172.837 171.304 174.25 170.665 176.011C170.04 177.759 169.728 179.676 169.728 181.764C169.728 183.866 170.04 185.791 170.665 187.538C171.304 189.286 172.277 190.685 173.584 191.736C174.905 192.787 176.567 193.312 178.57 193.312ZM207.015 198L197.384 165.273H203.968L210.381 189.307H210.701L217.135 165.273H223.719L230.111 189.2H230.431L236.801 165.273H243.385L233.776 198H227.277L220.63 174.371H220.14L213.492 198H207.015ZM255.802 178.568V198H249.431V165.273H255.546V170.599H255.951C256.704 168.866 257.883 167.474 259.488 166.423C261.107 165.372 263.146 164.847 265.603 164.847C267.833 164.847 269.786 165.315 271.462 166.253C273.138 167.176 274.438 168.554 275.362 170.386C276.285 172.219 276.746 174.484 276.746 177.183V198H270.376V177.95C270.376 175.578 269.758 173.724 268.522 172.389C267.286 171.04 265.589 170.365 263.43 170.365C261.952 170.365 260.638 170.685 259.488 171.324C258.352 171.963 257.45 172.901 256.782 174.136C256.129 175.358 255.802 176.835 255.802 178.568ZM305.495 154.364L317.64 189.903H318.13L330.275 154.364H337.391L321.688 198H314.081L298.378 154.364H305.495ZM354.005 198.661C350.781 198.661 348.004 197.972 345.674 196.594C343.359 195.202 341.569 193.249 340.305 190.734C339.055 188.206 338.43 185.244 338.43 181.849C338.43 178.497 339.055 175.543 340.305 172.986C341.569 170.429 343.33 168.433 345.589 166.999C347.862 165.564 350.518 164.847 353.558 164.847C355.404 164.847 357.194 165.152 358.927 165.763C360.66 166.374 362.215 167.332 363.593 168.639C364.971 169.946 366.058 171.643 366.853 173.732C367.648 175.805 368.046 178.327 368.046 181.295V183.554H342.031V178.781H361.803C361.803 177.105 361.462 175.621 360.781 174.328C360.099 173.021 359.14 171.991 357.904 171.239C356.683 170.486 355.248 170.109 353.6 170.109C351.81 170.109 350.248 170.55 348.913 171.43C347.592 172.297 346.569 173.433 345.844 174.839C345.134 176.232 344.779 177.744 344.779 179.378V183.107C344.779 185.294 345.163 187.155 345.93 188.689C346.711 190.223 347.798 191.395 349.19 192.205C350.582 193 352.208 193.398 354.069 193.398C355.276 193.398 356.377 193.227 357.371 192.886C358.366 192.531 359.225 192.006 359.95 191.31C360.674 190.614 361.228 189.754 361.612 188.732L367.641 189.818C367.158 191.594 366.292 193.149 365.042 194.484C363.806 195.805 362.251 196.835 360.376 197.574C358.515 198.298 356.391 198.661 354.005 198.661ZM381.485 178.568V198H375.115V165.273H381.23V170.599H381.635C382.387 168.866 383.566 167.474 385.172 166.423C386.791 165.372 388.829 164.847 391.287 164.847C393.517 164.847 395.47 165.315 397.146 166.253C398.822 167.176 400.122 168.554 401.045 170.386C401.968 172.219 402.43 174.484 402.43 177.183V198H396.059V177.95C396.059 175.578 395.441 173.724 394.206 172.389C392.97 171.04 391.272 170.365 389.113 170.365C387.636 170.365 386.322 170.685 385.172 171.324C384.035 171.963 383.133 172.901 382.466 174.136C381.812 175.358 381.485 176.835 381.485 178.568ZM424.76 198.661C421.691 198.661 419.014 197.957 416.727 196.551C414.44 195.145 412.664 193.178 411.4 190.649C410.136 188.121 409.504 185.166 409.504 181.786C409.504 178.391 410.136 175.422 411.4 172.879C412.664 170.337 414.44 168.362 416.727 166.956C419.014 165.55 421.691 164.847 424.76 164.847C427.828 164.847 430.505 165.55 432.792 166.956C435.079 168.362 436.855 170.337 438.119 172.879C439.383 175.422 440.015 178.391 440.015 181.786C440.015 185.166 439.383 188.121 438.119 190.649C436.855 193.178 435.079 195.145 432.792 196.551C430.505 197.957 427.828 198.661 424.76 198.661ZM424.781 193.312C426.77 193.312 428.417 192.787 429.724 191.736C431.031 190.685 431.997 189.286 432.622 187.538C433.261 185.791 433.581 183.866 433.581 181.764C433.581 179.676 433.261 177.759 432.622 176.011C431.997 174.25 431.031 172.837 429.724 171.771C428.417 170.706 426.77 170.173 424.781 170.173C422.778 170.173 421.116 170.706 419.795 171.771C418.488 172.837 417.515 174.25 416.876 176.011C416.251 177.759 415.939 179.676 415.939 181.764C415.939 183.866 416.251 185.791 416.876 187.538C417.515 189.286 418.488 190.685 419.795 191.736C421.116 192.787 422.778 193.312 424.781 193.312ZM447.126 198V165.273H453.241V170.599H453.646C454.328 168.795 455.443 167.389 456.991 166.381C458.54 165.358 460.393 164.847 462.553 164.847C464.74 164.847 466.572 165.358 468.05 166.381C469.541 167.403 470.642 168.81 471.352 170.599H471.693C472.474 168.852 473.717 167.46 475.422 166.423C477.126 165.372 479.158 164.847 481.516 164.847C484.484 164.847 486.906 165.777 488.781 167.638C490.67 169.499 491.615 172.304 491.615 176.054V198H485.244V176.651C485.244 174.435 484.641 172.83 483.433 171.835C482.226 170.841 480.784 170.344 479.108 170.344C477.034 170.344 475.422 170.983 474.271 172.261C473.121 173.526 472.545 175.152 472.545 177.141V198H466.196V176.246C466.196 174.47 465.642 173.043 464.534 171.963C463.426 170.884 461.984 170.344 460.209 170.344C459.001 170.344 457.886 170.663 456.864 171.303C455.855 171.928 455.038 172.801 454.413 173.923C453.803 175.045 453.497 176.345 453.497 177.822V198H447.126ZM514.259 198.661C511.034 198.661 508.257 197.972 505.928 196.594C503.613 195.202 501.823 193.249 500.559 190.734C499.309 188.206 498.684 185.244 498.684 181.849C498.684 178.497 499.309 175.543 500.559 172.986C501.823 170.429 503.584 168.433 505.843 166.999C508.115 165.564 510.772 164.847 513.811 164.847C515.658 164.847 517.448 165.152 519.181 165.763C520.914 166.374 522.469 167.332 523.847 168.639C525.225 169.946 526.311 171.643 527.107 173.732C527.902 175.805 528.3 178.327 528.3 181.295V183.554H502.284V178.781H522.057C522.057 177.105 521.716 175.621 521.034 174.328C520.353 173.021 519.394 171.991 518.158 171.239C516.936 170.486 515.502 170.109 513.854 170.109C512.064 170.109 510.502 170.55 509.167 171.43C507.846 172.297 506.823 173.433 506.098 174.839C505.388 176.232 505.033 177.744 505.033 179.378V183.107C505.033 185.294 505.417 187.155 506.184 188.689C506.965 190.223 508.051 191.395 509.444 192.205C510.836 193 512.462 193.398 514.323 193.398C515.53 193.398 516.631 193.227 517.625 192.886C518.62 192.531 519.479 192.006 520.203 191.31C520.928 190.614 521.482 189.754 521.865 188.732L527.895 189.818C527.412 191.594 526.546 193.149 525.296 194.484C524.06 195.805 522.505 196.835 520.63 197.574C518.769 198.298 516.645 198.661 514.259 198.661ZM551.759 198V154.364H567.313C570.708 154.364 573.52 154.982 575.75 156.217C577.98 157.453 579.65 159.143 580.757 161.288C581.865 163.419 582.419 165.82 582.419 168.49C582.419 171.175 581.858 173.589 580.736 175.734C579.628 177.865 577.952 179.555 575.708 180.805C573.478 182.041 570.672 182.659 567.292 182.659H556.596V177.077H566.695C568.84 177.077 570.58 176.707 571.915 175.969C573.25 175.216 574.23 174.193 574.855 172.901C575.48 171.608 575.793 170.138 575.793 168.49C575.793 166.842 575.48 165.379 574.855 164.101C574.23 162.822 573.243 161.821 571.894 161.097C570.559 160.372 568.797 160.01 566.61 160.01H558.343V198H551.759ZM589.626 198V165.273H595.784V170.472H596.125C596.722 168.71 597.773 167.325 599.278 166.317C600.798 165.294 602.517 164.783 604.435 164.783C604.832 164.783 605.301 164.797 605.841 164.825C606.395 164.854 606.828 164.889 607.141 164.932V171.026C606.885 170.955 606.43 170.876 605.777 170.791C605.124 170.692 604.47 170.642 603.817 170.642C602.311 170.642 600.969 170.962 599.79 171.601C598.625 172.226 597.702 173.099 597.02 174.222C596.338 175.33 595.997 176.594 595.997 178.014V198H589.626ZM625.267 198.661C622.199 198.661 619.522 197.957 617.235 196.551C614.948 195.145 613.172 193.178 611.908 190.649C610.644 188.121 610.012 185.166 610.012 181.786C610.012 178.391 610.644 175.422 611.908 172.879C613.172 170.337 614.948 168.362 617.235 166.956C619.522 165.55 622.199 164.847 625.267 164.847C628.336 164.847 631.013 165.55 633.3 166.956C635.587 168.362 637.363 170.337 638.627 172.879C639.891 175.422 640.523 178.391 640.523 181.786C640.523 185.166 639.891 188.121 638.627 190.649C637.363 193.178 635.587 195.145 633.3 196.551C631.013 197.957 628.336 198.661 625.267 198.661ZM625.289 193.312C627.277 193.312 628.925 192.787 630.232 191.736C631.539 190.685 632.505 189.286 633.13 187.538C633.769 185.791 634.088 183.866 634.088 181.764C634.088 179.676 633.769 177.759 633.13 176.011C632.505 174.25 631.539 172.837 630.232 171.771C628.925 170.706 627.277 170.173 625.289 170.173C623.286 170.173 621.624 170.706 620.303 171.771C618.996 172.837 618.023 174.25 617.384 176.011C616.759 177.759 616.446 179.676 616.446 181.764C616.446 183.866 616.759 185.791 617.384 187.538C618.023 189.286 618.996 190.685 620.303 191.736C621.624 192.787 623.286 193.312 625.289 193.312ZM647.634 165.273H654.005V200.131C654.005 202.318 653.607 204.165 652.812 205.67C652.031 207.176 650.866 208.32 649.317 209.101C647.783 209.882 645.887 210.273 643.629 210.273C643.401 210.273 643.188 210.273 642.989 210.273C642.776 210.273 642.556 210.266 642.329 210.251V204.776C642.528 204.776 642.705 204.776 642.862 204.776C643.004 204.776 643.167 204.776 643.352 204.776C644.857 204.776 645.944 204.371 646.612 203.561C647.293 202.766 647.634 201.608 647.634 200.088V165.273ZM650.788 160.223C649.68 160.223 648.728 159.854 647.933 159.115C647.151 158.362 646.761 157.467 646.761 156.43C646.761 155.379 647.151 154.484 647.933 153.746C648.728 152.993 649.68 152.616 650.788 152.616C651.896 152.616 652.84 152.993 653.621 153.746C654.417 154.484 654.815 155.379 654.815 156.43C654.815 157.467 654.417 158.362 653.621 159.115C652.84 159.854 651.896 160.223 650.788 160.223ZM676.681 198.661C673.456 198.661 670.679 197.972 668.35 196.594C666.034 195.202 664.245 193.249 662.98 190.734C661.73 188.206 661.105 185.244 661.105 181.849C661.105 178.497 661.73 175.543 662.98 172.986C664.245 170.429 666.006 168.433 668.265 166.999C670.537 165.564 673.194 164.847 676.233 164.847C678.08 164.847 679.87 165.152 681.603 165.763C683.336 166.374 684.891 167.332 686.269 168.639C687.647 169.946 688.733 171.643 689.529 173.732C690.324 175.805 690.722 178.327 690.722 181.295V183.554H664.706V178.781H684.479C684.479 177.105 684.138 175.621 683.456 174.328C682.775 173.021 681.816 171.991 680.58 171.239C679.358 170.486 677.924 170.109 676.276 170.109C674.486 170.109 672.924 170.55 671.588 171.43C670.267 172.297 669.245 173.433 668.52 174.839C667.81 176.232 667.455 177.744 667.455 179.378V183.107C667.455 185.294 667.838 187.155 668.605 188.689C669.387 190.223 670.473 191.395 671.865 192.205C673.257 193 674.884 193.398 676.745 193.398C677.952 193.398 679.053 193.227 680.047 192.886C681.042 192.531 681.901 192.006 682.625 191.31C683.35 190.614 683.904 189.754 684.287 188.732L690.317 189.818C689.834 191.594 688.968 193.149 687.718 194.484C686.482 195.805 684.926 196.835 683.051 197.574C681.191 198.298 679.067 198.661 676.681 198.661ZM711.576 198.661C708.408 198.661 705.681 197.943 703.394 196.509C701.121 195.06 699.374 193.064 698.153 190.521C696.931 187.979 696.32 185.067 696.32 181.786C696.32 178.462 696.945 175.528 698.195 172.986C699.445 170.429 701.207 168.433 703.479 166.999C705.752 165.564 708.43 164.847 711.512 164.847C713.998 164.847 716.214 165.308 718.16 166.232C720.106 167.141 721.675 168.419 722.869 170.067C724.076 171.714 724.793 173.639 725.021 175.841H718.82C718.479 174.307 717.698 172.986 716.477 171.878C715.269 170.77 713.65 170.216 711.619 170.216C709.843 170.216 708.288 170.685 706.952 171.622C705.631 172.545 704.602 173.866 703.863 175.585C703.124 177.29 702.755 179.307 702.755 181.636C702.755 184.023 703.117 186.082 703.842 187.815C704.566 189.548 705.589 190.891 706.91 191.842C708.245 192.794 709.815 193.27 711.619 193.27C712.826 193.27 713.92 193.05 714.9 192.609C715.894 192.155 716.725 191.509 717.393 190.67C718.075 189.832 718.55 188.824 718.82 187.645H725.021C724.793 189.761 724.104 191.651 722.954 193.312C721.803 194.974 720.262 196.281 718.33 197.233C716.413 198.185 714.161 198.661 711.576 198.661ZM747.11 165.273V170.386H729.234V165.273H747.11ZM734.028 157.432H740.399V188.391C740.399 189.626 740.583 190.557 740.953 191.182C741.322 191.793 741.798 192.212 742.38 192.439C742.977 192.652 743.623 192.759 744.319 192.759C744.831 192.759 745.278 192.723 745.662 192.652C746.045 192.581 746.343 192.524 746.556 192.482L747.707 197.744C747.338 197.886 746.812 198.028 746.13 198.17C745.449 198.327 744.596 198.412 743.574 198.426C741.897 198.455 740.335 198.156 738.886 197.531C737.437 196.906 736.265 195.94 735.37 194.634C734.475 193.327 734.028 191.686 734.028 189.712V157.432Z" fill="#5785A6"/>
<defs>
<linearGradient id="paint0_linear_347_7" x1="300.131" y1="11.7693" x2="258.676" y2="117.057" gradientUnits="userSpaceOnUse">
<stop stop-color="#CDDAF8"/>
<stop offset="0.57317" stop-color="#CDDAF8" stop-opacity="0.14"/>
<stop offset="1" stop-color="#CDDAF8" stop-opacity="0"/>
</linearGradient>
<linearGradient id="paint1_linear_347_7" x1="384.238" y1="122.126" x2="421.977" y2="22.3006" gradientUnits="userSpaceOnUse">
<stop stop-color="#CDDAF8"/>
<stop offset="1" stop-color="#A4C0FF" stop-opacity="0"/>
</linearGradient>
<linearGradient id="paint2_linear_347_7" x1="443.412" y1="18.3849" x2="487.753" y2="129.33" gradientUnits="userSpaceOnUse">
<stop stop-color="#193F5A"/>
<stop offset="0.484061" stop-color="#A9B8C3" stop-opacity="0.568668"/>
<stop offset="0.713338" stop-color="#D1D9DF" stop-opacity="0.1"/>
<stop offset="1" stop-color="white" stop-opacity="0"/>
</linearGradient>
</defs>
</svg>
