<svg width="705" height="212" viewBox="0 0 705 212" fill="none" xmlns="http://www.w3.org/2000/svg">
<path fill-rule="evenodd" clip-rule="evenodd" d="M0 91.9076C2.3873 81.86 12.3072 71.1883 19.6432 54.1517C26.9792 37.1152 36.2442 12.6469 52.6364 13.0829C53.058 12.9607 63.8939 11.8907 70.0872 22.9136C76.2806 33.9365 78.1249 40.0298 78.1249 40.0298C67.4222 54.0643 64.7729 63.1118 57.1732 80.9889C49.5735 98.8661 38.278 113.948 21.1016 114.025C3.92521 114.102 1.68075 104.093 0 91.9076Z" fill="url(#paint0_linear_347_7)"/>
<path fill-rule="evenodd" clip-rule="evenodd" d="M136.918 91.9076C145.555 84.0572 149.225 71.1883 156.561 54.1517C163.897 37.1152 173.162 12.6469 189.555 13.0829C189.976 12.9607 200.812 11.8907 207.005 22.9136C213.199 33.9365 213.154 41.2657 213.154 41.2657C202.451 55.3002 201.691 63.1118 194.091 80.9889C186.492 98.8661 175.196 113.948 158.02 114.025C140.843 114.102 138.599 104.093 136.918 91.9076Z" fill="url(#paint1_linear_347_7)"/>
<path fill-rule="evenodd" clip-rule="evenodd" d="M52.6083 13.0489H104.748C120.006 16.9484 124.366 48.43 127.61 63.7015C130.855 78.9729 142.04 113.244 156.199 114.025L103.098 113.846C86.3806 102.833 82.8826 76.6204 81.1832 63.7015C79.4838 50.7825 76.5888 12.3811 52.6083 13.0489Z" fill="#193F5A"/>
<path fill-rule="evenodd" clip-rule="evenodd" d="M188.41 13.0489H240.55C255.807 16.9484 260.167 48.43 263.412 63.7015C266.656 78.9729 277.842 113.244 292 114.025L238.899 113.846C222.182 102.833 218.684 76.6204 216.985 63.7015C215.285 50.7825 212.39 12.3811 188.41 13.0489Z" fill="url(#paint2_linear_347_7)"/>
<path d="M20.7797 141.364L31.3265 174.517H31.7314L42.2995 141.364H52.5268L37.4842 185H25.595L10.5311 141.364H20.7797ZM68.8319 185.639C65.4654 185.639 62.5676 184.957 60.1387 183.594C57.7239 182.216 55.8631 180.27 54.5563 177.756C53.2495 175.227 52.5961 172.237 52.5961 168.786C52.5961 165.419 53.2495 162.464 54.5563 159.922C55.8631 157.379 57.7026 155.398 60.0748 153.977C62.4611 152.557 65.2594 151.847 68.4696 151.847C70.6287 151.847 72.6387 152.195 74.4995 152.891C76.3745 153.572 78.008 154.602 79.4 155.98C80.8063 157.358 81.9 159.091 82.6813 161.179C83.4625 163.253 83.8532 165.682 83.8532 168.466V170.959H56.2182V165.334H75.3091C75.3091 164.027 75.025 162.869 74.4569 161.861C73.8887 160.852 73.1003 160.064 72.0918 159.496C71.0975 158.913 69.9398 158.622 68.6188 158.622C67.2409 158.622 66.0194 158.942 64.954 159.581C63.9029 160.206 63.079 161.051 62.4824 162.116C61.8858 163.168 61.5804 164.339 61.5662 165.632V170.98C61.5662 172.599 61.8645 173.999 62.4611 175.178C63.0719 176.357 63.9313 177.266 65.0392 177.905C66.1472 178.544 67.4611 178.864 68.981 178.864C69.9895 178.864 70.9128 178.722 71.7509 178.438C72.589 178.153 73.3063 177.727 73.9029 177.159C74.4995 176.591 74.954 175.895 75.2665 175.071L83.6614 175.625C83.2353 177.642 82.3617 179.403 81.0407 180.909C79.7338 182.401 78.0435 183.565 75.9696 184.403C73.91 185.227 71.5307 185.639 68.8319 185.639ZM98.8532 166.08V185H89.7765V152.273H98.427V158.047H98.8105C99.535 156.143 100.749 154.638 102.454 153.53C104.159 152.408 106.225 151.847 108.654 151.847C110.927 151.847 112.909 152.344 114.599 153.338C116.289 154.332 117.603 155.753 118.541 157.599C119.478 159.432 119.947 161.619 119.947 164.162V185H110.87V165.781C110.884 163.778 110.373 162.216 109.336 161.094C108.299 159.957 106.872 159.389 105.053 159.389C103.832 159.389 102.752 159.652 101.815 160.178C100.892 160.703 100.167 161.47 99.6415 162.479C99.1301 163.473 98.8674 164.673 98.8532 166.08ZM141.888 185.639C138.578 185.639 135.716 184.936 133.301 183.53C130.9 182.109 129.047 180.135 127.74 177.607C126.433 175.064 125.78 172.116 125.78 168.764C125.78 165.384 126.433 162.429 127.74 159.901C129.047 157.358 130.9 155.384 133.301 153.977C135.716 152.557 138.578 151.847 141.888 151.847C145.197 151.847 148.052 152.557 150.453 153.977C152.868 155.384 154.729 157.358 156.035 159.901C157.342 162.429 157.996 165.384 157.996 168.764C157.996 172.116 157.342 175.064 156.035 177.607C154.729 180.135 152.868 182.109 150.453 183.53C148.052 184.936 145.197 185.639 141.888 185.639ZM141.93 178.608C143.436 178.608 144.693 178.182 145.702 177.33C146.71 176.463 147.47 175.284 147.981 173.793C148.507 172.301 148.77 170.604 148.77 168.7C148.77 166.797 148.507 165.099 147.981 163.608C147.47 162.116 146.71 160.937 145.702 160.071C144.693 159.205 143.436 158.771 141.93 158.771C140.41 158.771 139.132 159.205 138.095 160.071C137.072 160.937 136.298 162.116 135.773 163.608C135.261 165.099 135.006 166.797 135.006 168.7C135.006 170.604 135.261 172.301 135.773 173.793C136.298 175.284 137.072 176.463 138.095 177.33C139.132 178.182 140.41 178.608 141.93 178.608ZM163.898 185V152.273H172.548V158.047H172.932C173.613 156.129 174.75 154.616 176.341 153.509C177.932 152.401 179.835 151.847 182.051 151.847C184.295 151.847 186.206 152.408 187.782 153.53C189.359 154.638 190.41 156.143 190.936 158.047H191.277C191.944 156.172 193.152 154.673 194.899 153.551C196.66 152.415 198.741 151.847 201.142 151.847C204.196 151.847 206.675 152.82 208.578 154.766C210.496 156.697 211.454 159.439 211.454 162.99V185H202.399V164.78C202.399 162.962 201.916 161.598 200.95 160.689C199.984 159.78 198.777 159.325 197.328 159.325C195.68 159.325 194.395 159.851 193.471 160.902C192.548 161.939 192.086 163.31 192.086 165.014V185H183.287V164.588C183.287 162.983 182.825 161.705 181.902 160.753C180.993 159.801 179.792 159.325 178.301 159.325C177.292 159.325 176.383 159.581 175.574 160.092C174.778 160.589 174.146 161.293 173.677 162.202C173.209 163.097 172.974 164.148 172.974 165.355V185H163.898ZM233.539 185.639C230.172 185.639 227.275 184.957 224.846 183.594C222.431 182.216 220.57 180.27 219.263 177.756C217.956 175.227 217.303 172.237 217.303 168.786C217.303 165.419 217.956 162.464 219.263 159.922C220.57 157.379 222.41 155.398 224.782 153.977C227.168 152.557 229.966 151.847 233.177 151.847C235.336 151.847 237.346 152.195 239.206 152.891C241.081 153.572 242.715 154.602 244.107 155.98C245.513 157.358 246.607 159.091 247.388 161.179C248.17 163.253 248.56 165.682 248.56 168.466V170.959H220.925V165.334H240.016C240.016 164.027 239.732 162.869 239.164 161.861C238.596 160.852 237.807 160.064 236.799 159.496C235.805 158.913 234.647 158.622 233.326 158.622C231.948 158.622 230.726 158.942 229.661 159.581C228.61 160.206 227.786 161.051 227.189 162.116C226.593 163.168 226.287 164.339 226.273 165.632V170.98C226.273 172.599 226.572 173.999 227.168 175.178C227.779 176.357 228.638 177.266 229.746 177.905C230.854 178.544 232.168 178.864 233.688 178.864C234.697 178.864 235.62 178.722 236.458 178.438C237.296 178.153 238.013 177.727 238.61 177.159C239.206 176.591 239.661 175.895 239.974 175.071L248.368 175.625C247.942 177.642 247.069 179.403 245.748 180.909C244.441 182.401 242.751 183.565 240.677 184.403C238.617 185.227 236.238 185.639 233.539 185.639ZM268.541 185V141.364H285.757C289.066 141.364 291.886 141.996 294.215 143.26C296.545 144.51 298.32 146.25 299.542 148.48C300.778 150.696 301.396 153.253 301.396 156.151C301.396 159.048 300.771 161.605 299.521 163.821C298.271 166.037 296.46 167.763 294.088 168.999C291.73 170.234 288.874 170.852 285.522 170.852H274.549V163.459H284.031C285.806 163.459 287.269 163.153 288.42 162.543C289.585 161.918 290.451 161.058 291.019 159.964C291.602 158.857 291.893 157.585 291.893 156.151C291.893 154.702 291.602 153.437 291.019 152.358C290.451 151.264 289.585 150.419 288.42 149.822C287.255 149.212 285.778 148.906 283.988 148.906H277.767V185H268.541ZM307.218 185V152.273H316.018V157.983H316.358C316.955 155.952 317.956 154.418 319.363 153.381C320.769 152.33 322.388 151.804 324.221 151.804C324.675 151.804 325.165 151.832 325.691 151.889C326.216 151.946 326.678 152.024 327.076 152.124V160.178C326.65 160.05 326.06 159.936 325.307 159.837C324.555 159.737 323.866 159.688 323.241 159.688C321.905 159.688 320.712 159.979 319.661 160.561C318.624 161.129 317.8 161.925 317.189 162.947C316.593 163.97 316.295 165.149 316.295 166.484V185H307.218ZM345.032 185.639C341.722 185.639 338.86 184.936 336.445 183.53C334.045 182.109 332.191 180.135 330.884 177.607C329.578 175.064 328.924 172.116 328.924 168.764C328.924 165.384 329.578 162.429 330.884 159.901C332.191 157.358 334.045 155.384 336.445 153.977C338.86 152.557 341.722 151.847 345.032 151.847C348.342 151.847 351.197 152.557 353.597 153.977C356.012 155.384 357.873 157.358 359.18 159.901C360.487 162.429 361.14 165.384 361.14 168.764C361.14 172.116 360.487 175.064 359.18 177.607C357.873 180.135 356.012 182.109 353.597 183.53C351.197 184.936 348.342 185.639 345.032 185.639ZM345.075 178.608C346.58 178.608 347.838 178.182 348.846 177.33C349.855 176.463 350.615 175.284 351.126 173.793C351.651 172.301 351.914 170.604 351.914 168.7C351.914 166.797 351.651 165.099 351.126 163.608C350.615 162.116 349.855 160.937 348.846 160.071C347.838 159.205 346.58 158.771 345.075 158.771C343.555 158.771 342.276 159.205 341.24 160.071C340.217 160.937 339.443 162.116 338.917 163.608C338.406 165.099 338.15 166.797 338.15 168.7C338.15 170.604 338.406 172.301 338.917 173.793C339.443 175.284 340.217 176.463 341.24 177.33C342.276 178.182 343.555 178.608 345.075 178.608ZM367.042 152.273H376.119V186.619C376.119 189.148 375.622 191.193 374.627 192.756C373.633 194.318 372.205 195.462 370.345 196.186C368.498 196.911 366.289 197.273 363.718 197.273C363.406 197.273 363.107 197.266 362.823 197.251C362.525 197.251 362.213 197.244 361.886 197.23V190.135C362.127 190.149 362.34 190.156 362.525 190.156C362.695 190.17 362.88 190.178 363.079 190.178C364.542 190.178 365.565 189.865 366.147 189.24C366.744 188.629 367.042 187.706 367.042 186.47V152.273ZM371.559 148.054C370.224 148.054 369.073 147.607 368.107 146.712C367.142 145.803 366.659 144.716 366.659 143.452C366.659 142.202 367.142 141.129 368.107 140.234C369.073 139.325 370.224 138.871 371.559 138.871C372.923 138.871 374.08 139.325 375.032 140.234C375.998 141.129 376.481 142.202 376.481 143.452C376.481 144.716 375.998 145.803 375.032 146.712C374.08 147.607 372.923 148.054 371.559 148.054ZM398.305 185.639C394.938 185.639 392.04 184.957 389.611 183.594C387.197 182.216 385.336 180.27 384.029 177.756C382.722 175.227 382.069 172.237 382.069 168.786C382.069 165.419 382.722 162.464 384.029 159.922C385.336 157.379 387.175 155.398 389.547 153.977C391.934 152.557 394.732 151.847 397.942 151.847C400.101 151.847 402.111 152.195 403.972 152.891C405.847 153.572 407.481 154.602 408.873 155.98C410.279 157.358 411.373 159.091 412.154 161.179C412.935 163.253 413.326 165.682 413.326 168.466V170.959H385.691V165.334H404.782C404.782 164.027 404.498 162.869 403.93 161.861C403.361 160.852 402.573 160.064 401.564 159.496C400.57 158.913 399.412 158.622 398.091 158.622C396.714 158.622 395.492 158.942 394.427 159.581C393.376 160.206 392.552 161.051 391.955 162.116C391.358 163.168 391.053 164.339 391.039 165.632V170.98C391.039 172.599 391.337 173.999 391.934 175.178C392.545 176.357 393.404 177.266 394.512 177.905C395.62 178.544 396.934 178.864 398.454 178.864C399.462 178.864 400.385 178.722 401.224 178.438C402.062 178.153 402.779 177.727 403.376 177.159C403.972 176.591 404.427 175.895 404.739 175.071L413.134 175.625C412.708 177.642 411.834 179.403 410.513 180.909C409.206 182.401 407.516 183.565 405.442 184.403C403.383 185.227 401.003 185.639 398.305 185.639ZM434.036 185.639C430.684 185.639 427.8 184.929 425.385 183.509C422.985 182.074 421.138 180.085 419.846 177.543C418.567 175 417.928 172.074 417.928 168.764C417.928 165.412 418.574 162.472 419.867 159.943C421.174 157.401 423.028 155.419 425.428 153.999C427.829 152.564 430.684 151.847 433.993 151.847C436.849 151.847 439.349 152.365 441.493 153.402C443.638 154.439 445.336 155.895 446.586 157.77C447.836 159.645 448.525 161.847 448.653 164.375H440.087C439.846 162.741 439.206 161.428 438.17 160.433C437.147 159.425 435.805 158.92 434.143 158.92C432.736 158.92 431.508 159.304 430.456 160.071C429.42 160.824 428.61 161.925 428.028 163.374C427.445 164.822 427.154 166.577 427.154 168.636C427.154 170.724 427.438 172.5 428.006 173.963C428.589 175.426 429.405 176.541 430.456 177.308C431.508 178.075 432.736 178.459 434.143 178.459C435.18 178.459 436.11 178.246 436.934 177.82C437.772 177.393 438.461 176.776 439.001 175.966C439.555 175.142 439.917 174.155 440.087 173.004H448.653C448.51 175.504 447.829 177.706 446.607 179.609C445.4 181.499 443.731 182.976 441.6 184.041C439.469 185.107 436.948 185.639 434.036 185.639ZM471.872 152.273V159.091H452.163V152.273H471.872ZM456.637 144.432H465.714V174.943C465.714 175.781 465.842 176.435 466.097 176.903C466.353 177.358 466.708 177.678 467.163 177.862C467.632 178.047 468.171 178.139 468.782 178.139C469.208 178.139 469.634 178.104 470.061 178.033C470.487 177.947 470.813 177.884 471.041 177.841L472.468 184.595C472.014 184.737 471.374 184.901 470.551 185.085C469.727 185.284 468.725 185.405 467.546 185.447C465.359 185.533 463.441 185.241 461.794 184.574C460.16 183.906 458.889 182.869 457.98 181.463C457.07 180.057 456.623 178.281 456.637 176.136V144.432Z" fill="#5785A6"/>
<path d="M520.249 190.05C516.186 190.05 512.536 189.425 509.297 188.175C506.058 186.925 503.296 185.128 501.009 182.784C498.736 180.426 496.989 177.592 495.767 174.283C494.56 170.973 493.956 167.273 493.956 163.182C493.956 159.176 494.567 155.54 495.789 152.273C497.024 149.006 498.779 146.2 501.051 143.857C503.338 141.513 506.066 139.709 509.233 138.445C512.415 137.166 515.952 136.527 519.844 136.527C523.651 136.527 527.06 137.195 530.071 138.53C533.083 139.851 535.646 141.655 537.763 143.942C539.879 146.229 541.492 148.835 542.6 151.761C543.722 154.673 544.283 157.72 544.283 160.902C544.283 162.919 544.127 164.908 543.814 166.868C543.516 168.828 542.997 170.604 542.259 172.195C541.52 173.786 540.497 175.057 539.191 176.009C537.884 176.946 536.229 177.415 534.226 177.415C533.175 177.415 532.138 177.244 531.115 176.903C530.107 176.548 529.24 175.973 528.516 175.178C527.806 174.368 527.394 173.288 527.28 171.939H527.067C526.612 172.962 525.973 173.899 525.149 174.751C524.325 175.589 523.31 176.257 522.102 176.754C520.909 177.251 519.524 177.479 517.948 177.436C516.158 177.393 514.546 176.996 513.111 176.243C511.691 175.49 510.476 174.46 509.468 173.153C508.473 171.847 507.713 170.334 507.188 168.615C506.662 166.882 506.399 165.014 506.399 163.011C506.399 161.08 506.691 159.297 507.273 157.663C507.869 156.03 508.686 154.602 509.723 153.381C510.774 152.159 512.003 151.186 513.409 150.462C514.816 149.737 516.328 149.318 517.948 149.205C519.396 149.105 520.732 149.247 521.953 149.631C523.175 150 524.212 150.54 525.064 151.25C525.916 151.96 526.527 152.763 526.896 153.658H527.11V149.801H530.583V169.553C530.583 171.044 530.874 172.209 531.456 173.047C532.053 173.871 532.99 174.283 534.269 174.283C535.817 174.283 537.074 173.778 538.04 172.77C539.02 171.747 539.737 170.241 540.192 168.253C540.646 166.25 540.874 163.786 540.874 160.859C540.874 158.643 540.561 156.499 539.936 154.425C539.325 152.337 538.431 150.405 537.252 148.629C536.073 146.839 534.624 145.277 532.905 143.942C531.186 142.592 529.219 141.541 527.003 140.788C524.801 140.036 522.358 139.659 519.673 139.659C516.35 139.659 513.331 140.22 510.618 141.342C507.905 142.464 505.568 144.07 503.608 146.158C501.662 148.246 500.164 150.739 499.112 153.636C498.061 156.52 497.536 159.737 497.536 163.288C497.536 166.882 498.061 170.128 499.112 173.026C500.164 175.923 501.676 178.402 503.651 180.462C505.639 182.521 508.04 184.105 510.852 185.213C513.665 186.321 516.833 186.875 520.355 186.875C521.918 186.875 523.452 186.719 524.958 186.406C526.477 186.108 527.855 185.739 529.091 185.298C530.341 184.858 531.35 184.425 532.117 183.999L533.203 186.982C532.152 187.55 530.902 188.068 529.453 188.537C528.019 189.006 526.499 189.375 524.894 189.645C523.303 189.915 521.754 190.05 520.249 190.05ZM518.395 174.091C520.327 174.091 521.953 173.643 523.274 172.749C524.595 171.854 525.59 170.568 526.257 168.892C526.939 167.216 527.28 165.199 527.28 162.841C527.28 160.469 526.918 158.516 526.193 156.982C525.483 155.447 524.468 154.311 523.146 153.572C521.84 152.82 520.291 152.443 518.502 152.443C516.769 152.443 515.249 152.919 513.942 153.871C512.649 154.808 511.634 156.065 510.895 157.642C510.171 159.219 509.808 160.952 509.808 162.841C509.808 164.844 510.128 166.697 510.767 168.402C511.421 170.107 512.379 171.484 513.644 172.536C514.922 173.572 516.506 174.091 518.395 174.091Z" fill="#7E7E7E" fill-opacity="0.32"/>
<path d="M605.673 163.182C605.673 167.727 604.863 171.683 603.244 175.05C601.625 178.402 599.395 181.001 596.554 182.848C593.727 184.68 590.474 185.597 586.795 185.597C583.116 185.597 579.856 184.68 577.015 182.848C574.189 181.001 571.966 178.402 570.346 175.05C568.741 171.683 567.939 167.727 567.939 163.182C567.939 158.636 568.741 154.687 570.346 151.335C571.966 147.969 574.196 145.369 577.037 143.537C579.878 141.69 583.131 140.767 586.795 140.767C590.474 140.767 593.727 141.69 596.554 143.537C599.395 145.369 601.625 147.969 603.244 151.335C604.863 154.687 605.673 158.636 605.673 163.182ZM601.795 163.182C601.795 159.276 601.142 155.93 599.835 153.146C598.528 150.348 596.746 148.21 594.487 146.733C592.229 145.256 589.665 144.517 586.795 144.517C583.94 144.517 581.383 145.256 579.125 146.733C576.866 148.21 575.077 150.341 573.756 153.125C572.449 155.909 571.795 159.261 571.795 163.182C571.795 167.088 572.449 170.433 573.756 173.217C575.062 176.001 576.845 178.139 579.104 179.631C581.362 181.108 583.926 181.847 586.795 181.847C589.665 181.847 592.229 181.108 594.487 179.631C596.76 178.153 598.55 176.023 599.856 173.239C601.163 170.44 601.809 167.088 601.795 163.182ZM639.002 152.273C638.761 149.844 637.688 147.912 635.785 146.477C633.882 145.043 631.488 144.325 628.605 144.325C626.573 144.325 624.784 144.673 623.235 145.369C621.701 146.065 620.494 147.031 619.613 148.267C618.747 149.489 618.313 150.881 618.313 152.443C618.313 153.594 618.562 154.602 619.059 155.469C619.556 156.335 620.224 157.081 621.062 157.706C621.914 158.317 622.852 158.842 623.874 159.283C624.911 159.723 625.955 160.092 627.007 160.391L631.609 161.712C633.001 162.095 634.393 162.585 635.785 163.182C637.177 163.778 638.448 164.531 639.599 165.44C640.764 166.335 641.694 167.436 642.39 168.743C643.1 170.036 643.455 171.591 643.455 173.409C643.455 175.739 642.852 177.834 641.644 179.695C640.437 181.555 638.704 183.033 636.445 184.126C634.187 185.206 631.481 185.746 628.328 185.746C625.359 185.746 622.781 185.256 620.593 184.276C618.406 183.281 616.687 181.911 615.437 180.163C614.187 178.416 613.484 176.392 613.328 174.091H617.419C617.561 175.81 618.129 177.266 619.123 178.459C620.117 179.652 621.41 180.561 623.001 181.186C624.592 181.797 626.367 182.102 628.328 182.102C630.501 182.102 632.433 181.74 634.123 181.016C635.828 180.277 637.163 179.254 638.129 177.947C639.109 176.626 639.599 175.092 639.599 173.345C639.599 171.868 639.215 170.632 638.448 169.638C637.681 168.629 636.609 167.784 635.231 167.102C633.867 166.42 632.284 165.817 630.48 165.291L625.259 163.757C621.836 162.734 619.18 161.321 617.291 159.517C615.401 157.713 614.457 155.412 614.457 152.614C614.457 150.27 615.082 148.21 616.332 146.435C617.596 144.645 619.301 143.253 621.445 142.259C623.605 141.25 626.026 140.746 628.711 140.746C631.424 140.746 633.825 141.243 635.913 142.237C638.001 143.232 639.656 144.602 640.877 146.349C642.113 148.082 642.774 150.057 642.859 152.273H639.002ZM682.127 141.364H686.112V170.256C686.112 173.224 685.416 175.881 684.024 178.224C682.632 180.554 680.693 182.393 678.207 183.743C675.735 185.078 672.859 185.746 669.578 185.746C666.311 185.746 663.434 185.071 660.948 183.722C658.463 182.372 656.524 180.533 655.132 178.203C653.74 175.874 653.044 173.224 653.044 170.256V141.364H657.028V169.979C657.028 172.294 657.546 174.361 658.583 176.179C659.62 177.983 661.076 179.403 662.951 180.44C664.84 181.477 667.049 181.996 669.578 181.996C672.106 181.996 674.315 181.477 676.204 180.44C678.093 179.403 679.549 177.983 680.572 176.179C681.609 174.361 682.127 172.294 682.127 169.979V141.364Z" fill="#E83900"/>
<defs>
<linearGradient id="paint0_linear_347_7" x1="75.1312" y1="-0.230739" x2="33.6761" y2="105.057" gradientUnits="userSpaceOnUse">
<stop stop-color="#CDDAF8"/>
<stop offset="0.57317" stop-color="#CDDAF8" stop-opacity="0.14"/>
<stop offset="1" stop-color="#CDDAF8" stop-opacity="0"/>
</linearGradient>
<linearGradient id="paint1_linear_347_7" x1="159.238" y1="110.126" x2="196.977" y2="10.3006" gradientUnits="userSpaceOnUse">
<stop stop-color="#CDDAF8"/>
<stop offset="1" stop-color="#A4C0FF" stop-opacity="0"/>
</linearGradient>
<linearGradient id="paint2_linear_347_7" x1="218.412" y1="6.38495" x2="262.753" y2="117.33" gradientUnits="userSpaceOnUse">
<stop stop-color="#193F5A"/>
<stop offset="0.484061" stop-color="#A9B8C3" stop-opacity="0.568668"/>
<stop offset="0.713338" stop-color="#D1D9DF" stop-opacity="0.1"/>
<stop offset="1" stop-color="white" stop-opacity="0"/>
</linearGradient>
</defs>
</svg>
